<svg xmlns="http://www.w3.org/2000/svg" width="47.097" height="45.736" viewBox="0 0 47.097 45.736">
  <g id="Group_4" transform="matrix(0.985, 0.174, -0.174, 0.985, 7.344, 0)">
    <g id="Polygon_1" transform="translate(0 0)" fill="none">
      <path d="M17.635,0l5.878,10.2-5.878,10.2H5.878L0,10.2,5.878,0Z" stroke="none"/>
      <path d="M 7.612382888793945 2.999998092651367 L 3.462213516235352 10.20406723022461 L 7.612382888793945 17.40813827514648 L 15.90133857727051 17.40813827514648 L 20.0515079498291 10.20406723022461 L 15.90133857727051 2.999998092651367 L 7.612382888793945 2.999998092651367 M 5.87843132019043 -1.9073486328125e-06 L 17.63529014587402 -1.9073486328125e-06 L 23.51372146606445 10.20406723022461 L 17.63529014587402 20.40813636779785 L 5.87843132019043 20.40813636779785 L 0 10.20406723022461 L 5.87843132019043 -1.9073486328125e-06 Z" stroke="none" fill="#ffb532"/>
    </g>
    <g id="Polygon_5" transform="translate(18.781 10.943)" fill="none">
      <path d="M17.635,0l5.878,10.2-5.878,10.2H5.878L0,10.2,5.878,0Z" stroke="none"/>
      <path d="M 7.612382888793945 2.999998092651367 L 3.462213516235352 10.20406723022461 L 7.612382888793945 17.40813827514648 L 15.90133857727051 17.40813827514648 L 20.0515079498291 10.20406723022461 L 15.90133857727051 2.999998092651367 L 7.612382888793945 2.999998092651367 M 5.87843132019043 -1.9073486328125e-06 L 17.63529014587402 -1.9073486328125e-06 L 23.51372146606445 10.20406723022461 L 17.63529014587402 20.40813636779785 L 5.87843132019043 20.40813636779785 L 0 10.20406723022461 L 5.87843132019043 -1.9073486328125e-06 Z" stroke="none" fill="#ffb532"/>
    </g>
    <g id="Polygon_4" transform="translate(0 21.887)" fill="none">
      <path d="M17.635,0l5.878,10.2-5.878,10.2H5.878L0,10.2,5.878,0Z" stroke="none"/>
      <path d="M 7.612382888793945 2.999998092651367 L 3.462213516235352 10.20406723022461 L 7.612382888793945 17.40813827514648 L 15.90133857727051 17.40813827514648 L 20.0515079498291 10.20406723022461 L 15.90133857727051 2.999998092651367 L 7.612382888793945 2.999998092651367 M 5.87843132019043 -1.9073486328125e-06 L 17.63529014587402 -1.9073486328125e-06 L 23.51372146606445 10.20406723022461 L 17.63529014587402 20.40813636779785 L 5.87843132019043 20.40813636779785 L 0 10.20406723022461 L 5.87843132019043 -1.9073486328125e-06 Z" stroke="none" fill="#ffb532"/>
    </g>
  </g>
</svg>
